version 1.00
36
[-0.912420,-0.179519,0.030795][0.000000,-0.216401,-0.976305][0.000000,1.000000,0.000000][-1.071383,-0.261316,0.048929][0.000000,-0.216401,-0.976305][0.000000,1.000000,0.000000][-1.071383,-0.179519,0.030795][0.000000,-0.216401,-0.976305][0.000000,1.000000,0.000000]
[-1.071383,-0.261316,0.048929][0.000000,-0.216401,-0.976305][0.000000,1.000000,0.000000][-0.912420,-0.179519,0.030795][0.000000,-0.216401,-0.976305][0.000000,1.000000,0.000000][-0.912420,-0.261316,0.048929][0.000000,-0.216401,-0.976305][0.000000,1.000000,0.000000]
[-0.912420,-0.179519,0.030795][0.000000,0.976305,-0.216401][0.000000,1.000000,0.000000][-1.034766,-0.161903,0.110258][0.000000,0.976305,-0.216401][0.000000,1.000000,0.000000][-1.010655,-0.156684,0.133796][0.000000,0.976305,-0.216401][0.000000,1.000000,0.000000]
[-1.034766,-0.161903,0.110258][0.000000,0.976305,-0.216401][0.000000,1.000000,0.000000][-0.912420,-0.179519,0.030795][0.000000,0.976305,-0.216401][0.000000,1.000000,0.000000][-1.071383,-0.179519,0.030795][0.000000,0.976305,-0.216401][0.000000,1.000000,0.000000]
[-1.071383,-0.165729,0.093002][0.000000,0.976305,-0.216401][0.000000,1.000000,0.000000][-1.034766,-0.161903,0.110258][0.000000,0.976305,-0.216401][0.000000,1.000000,0.000000][-1.071383,-0.179519,0.030795][0.000000,0.976305,-0.216401][0.000000,1.000000,0.000000]
[-1.034766,-0.161903,0.110258][0.000000,0.976305,-0.216401][0.000000,1.000000,0.000000][-1.071383,-0.165729,0.093002][0.000000,0.976305,-0.216401][0.000000,1.000000,0.000000][-1.053708,-0.161903,0.110258][0.000000,0.976305,-0.216401][0.000000,1.000000,0.000000]
[-1.010655,-0.156684,0.133796][0.000000,0.976305,-0.216401][0.000000,1.000000,0.000000][-0.912420,-0.135412,0.229755][0.000000,0.976305,-0.216401][0.000000,1.000000,0.000000][-0.912420,-0.179519,0.030795][0.000000,0.976305,-0.216401][0.000000,1.000000,0.000000]
[-1.010655,-0.135412,0.229755][0.000000,0.976305,-0.216401][0.000000,1.000000,0.000000][-0.912420,-0.135412,0.229755][0.000000,0.976305,-0.216401][0.000000,1.000000,0.000000][-1.010655,-0.156684,0.133796][0.000000,0.976305,-0.216401][0.000000,1.000000,0.000000]
[-0.912420,-0.135412,0.229755][0.000000,0.976305,-0.216401][0.000000,1.000000,0.000000][-1.010655,-0.135412,0.229755][0.000000,0.976305,-0.216401][0.000000,1.000000,0.000000][-0.935521,-0.130412,0.252309][0.000000,0.976305,-0.216401][0.000000,1.000000,0.000000]
[-0.935521,-0.130412,0.252309][0.000000,0.976305,-0.216401][0.000000,1.000000,0.000000][-1.010655,-0.135412,0.229755][0.000000,0.976305,-0.216401][0.000000,1.000000,0.000000][-0.987554,-0.130412,0.252309][0.000000,0.976305,-0.216401][0.000000,1.000000,0.000000]
[-0.912420,-0.261316,0.048929][0.000000,-0.976305,0.216401][0.000000,1.000000,0.000000][-0.912420,-0.217209,0.247888][0.000000,-0.976305,0.216401][0.000000,1.000000,0.000000][-1.010655,-0.238481,0.151930][0.000000,-0.976305,0.216401][0.000000,1.000000,0.000000]
[-0.912420,-0.217209,0.247888][0.000000,-0.976305,0.216401][0.000000,1.000000,0.000000][-1.010655,-0.217209,0.247888][0.000000,-0.976305,0.216401][0.000000,1.000000,0.000000][-1.010655,-0.238481,0.151930][0.000000,-0.976305,0.216401][0.000000,1.000000,0.000000]
[-1.010655,-0.217209,0.247888][0.000000,-0.976305,0.216401][0.000000,1.000000,0.000000][-0.912420,-0.217209,0.247888][0.000000,-0.976305,0.216401][0.000000,1.000000,0.000000][-0.987554,-0.212208,0.270442][0.000000,-0.976305,0.216401][0.000000,1.000000,0.000000]
[-0.987554,-0.212208,0.270442][0.000000,-0.976305,0.216401][0.000000,1.000000,0.000000][-0.912420,-0.217209,0.247888][0.000000,-0.976305,0.216401][0.000000,1.000000,0.000000][-0.935521,-0.212208,0.270442][0.000000,-0.976305,0.216401][0.000000,1.000000,0.000000]
[-1.034766,-0.243700,0.128392][0.000000,-0.976305,0.216401][0.000000,1.000000,0.000000][-0.912420,-0.261316,0.048929][0.000000,-0.976305,0.216401][0.000000,1.000000,0.000000][-1.010655,-0.238481,0.151930][0.000000,-0.976305,0.216401][0.000000,1.000000,0.000000]
[-1.034766,-0.243700,0.128392][0.000000,-0.976305,0.216401][0.000000,1.000000,0.000000][-1.071383,-0.261316,0.048929][0.000000,-0.976305,0.216401][0.000000,1.000000,0.000000][-0.912420,-0.261316,0.048929][0.000000,-0.976305,0.216401][0.000000,1.000000,0.000000]
[-1.071383,-0.261316,0.048929][0.000000,-0.976305,0.216401][0.000000,1.000000,0.000000][-1.034766,-0.243700,0.128392][0.000000,-0.976305,0.216401][0.000000,1.000000,0.000000][-1.071383,-0.247526,0.111135][0.000000,-0.976305,0.216401][0.000000,1.000000,0.000000]
[-1.071383,-0.247526,0.111135][0.000000,-0.976305,0.216401][0.000000,1.000000,0.000000][-1.034766,-0.243700,0.128392][0.000000,-0.976305,0.216401][0.000000,1.000000,0.000000][-1.053708,-0.243700,0.128392][0.000000,-0.976305,0.216401][0.000000,1.000000,0.000000]
[-1.071383,-0.261316,0.048929][-1.000000,0.000000,0.000000][0.000000,1.000000,0.000000][-1.071383,-0.165729,0.093002][-0.923889,0.082799,0.373596][0.000000,1.000000,0.000000][-1.071383,-0.179519,0.030795][-1.000000,0.000000,0.000000][0.000000,1.000000,0.000000]
[-1.071383,-0.165729,0.093002][-0.923889,0.082799,0.373596][0.000000,1.000000,0.000000][-1.071383,-0.261316,0.048929][-1.000000,0.000000,0.000000][0.000000,1.000000,0.000000][-1.071383,-0.247526,0.111135][-0.923889,0.082799,0.373596][0.000000,1.000000,0.000000]
[-1.071383,-0.247526,0.111135][-0.923889,0.082799,0.373596][0.000000,1.000000,0.000000][-1.053708,-0.161903,0.110258][-0.382688,0.199994,0.901971][0.000000,1.000000,0.000000][-1.071383,-0.165729,0.093002][-0.923889,0.082799,0.373596][0.000000,1.000000,0.000000]
[-1.053708,-0.161903,0.110258][-0.382688,0.199994,0.901971][0.000000,1.000000,0.000000][-1.071383,-0.247526,0.111135][-0.923889,0.082799,0.373596][0.000000,1.000000,0.000000][-1.053708,-0.243700,0.128392][-0.382688,0.199994,0.901971][0.000000,1.000000,0.000000]
[-1.053708,-0.161903,0.110258][-0.382688,0.199994,0.901971][0.000000,1.000000,0.000000][-1.053708,-0.243700,0.128392][-0.382688,0.199994,0.901971][0.000000,1.000000,0.000000][-1.034766,-0.243700,0.128392][-0.382688,0.199994,0.901971][0.000000,1.000000,0.000000]
[-1.034766,-0.243700,0.128392][-0.382688,0.199994,0.901971][0.000000,1.000000,0.000000][-1.034766,-0.161903,0.110258][-0.382688,0.199994,0.901971][0.000000,1.000000,0.000000][-1.053708,-0.161903,0.110258][-0.382688,0.199994,0.901971][0.000000,1.000000,0.000000]
[-1.010655,-0.238481,0.151930][-0.923889,0.082799,0.373596][0.000000,1.000000,0.000000][-1.034766,-0.161903,0.110258][-0.382688,0.199994,0.901971][0.000000,1.000000,0.000000][-1.034766,-0.243700,0.128392][-0.382688,0.199994,0.901971][0.000000,1.000000,0.000000]
[-1.034766,-0.161903,0.110258][-0.382688,0.199994,0.901971][0.000000,1.000000,0.000000][-1.010655,-0.238481,0.151930][-0.923889,0.082799,0.373596][0.000000,1.000000,0.000000][-1.010655,-0.156684,0.133796][-0.923889,0.082799,0.373596][0.000000,1.000000,0.000000]
[-1.010655,-0.217209,0.247888][-0.923889,0.082799,0.373596][0.000000,1.000000,0.000000][-1.010655,-0.156684,0.133796][-0.923889,0.082799,0.373596][0.000000,1.000000,0.000000][-1.010655,-0.238481,0.151930][-0.923889,0.082799,0.373596][0.000000,1.000000,0.000000]
[-1.010655,-0.156684,0.133796][-0.923889,0.082799,0.373596][0.000000,1.000000,0.000000][-1.010655,-0.217209,0.247888][-0.923889,0.082799,0.373596][0.000000,1.000000,0.000000][-1.010655,-0.135412,0.229755][-0.923889,0.082799,0.373596][0.000000,1.000000,0.000000]
[-1.010655,-0.217209,0.247888][-0.923889,0.082799,0.373596][0.000000,1.000000,0.000000][-0.987554,-0.130412,0.252309][-0.382688,0.199994,0.901971][0.000000,1.000000,0.000000][-1.010655,-0.135412,0.229755][-0.923889,0.082799,0.373596][0.000000,1.000000,0.000000]
[-0.987554,-0.130412,0.252309][-0.382688,0.199994,0.901971][0.000000,1.000000,0.000000][-1.010655,-0.217209,0.247888][-0.923889,0.082799,0.373596][0.000000,1.000000,0.000000][-0.987554,-0.212208,0.270442][-0.382688,0.199994,0.901971][0.000000,1.000000,0.000000]
[-0.987554,-0.212208,0.270442][-0.382688,0.199994,0.901971][0.000000,1.000000,0.000000][-0.935521,-0.212208,0.270442][0.382688,0.199994,0.901971][0.000000,1.000000,0.000000][-0.987554,-0.130412,0.252309][-0.382688,0.199994,0.901971][0.000000,1.000000,0.000000]
[-0.935521,-0.212208,0.270442][0.382688,0.199994,0.901971][0.000000,1.000000,0.000000][-0.935521,-0.130412,0.252309][0.382688,0.199994,0.901971][0.000000,1.000000,0.000000][-0.987554,-0.130412,0.252309][-0.382688,0.199994,0.901971][0.000000,1.000000,0.000000]
[-0.912420,-0.217209,0.247888][0.923889,0.082799,0.373596][0.000000,1.000000,0.000000][-0.935521,-0.130412,0.252309][0.382688,0.199994,0.901971][0.000000,1.000000,0.000000][-0.935521,-0.212208,0.270442][0.382688,0.199994,0.901971][0.000000,1.000000,0.000000]
[-0.912420,-0.217209,0.247888][0.923889,0.082799,0.373596][0.000000,1.000000,0.000000][-0.912420,-0.135412,0.229755][0.923889,0.082799,0.373596][0.000000,1.000000,0.000000][-0.935521,-0.130412,0.252309][0.382688,0.199994,0.901971][0.000000,1.000000,0.000000]
[-0.912420,-0.179519,0.030795][1.000000,0.000000,0.000000][0.000000,1.000000,0.000000][-0.912420,-0.135412,0.229755][0.923889,0.082799,0.373596][0.000000,1.000000,0.000000][-0.912420,-0.217209,0.247888][0.923889,0.082799,0.373596][0.000000,1.000000,0.000000]
[-0.912420,-0.217209,0.247888][0.923889,0.082799,0.373596][0.000000,1.000000,0.000000][-0.912420,-0.261316,0.048929][1.000000,0.000000,0.000000][0.000000,1.000000,0.000000][-0.912420,-0.179519,0.030795][1.000000,0.000000,0.000000][0.000000,1.000000,0.000000]
